<svg width="256" height="256" xmlns="http://www.w3.org/2000/svg">

 <g>
  <title>background</title>
  <rect fill="none" id="canvas_background" height="602" width="802" y="-1" x="-1"/>
 </g>
 <g>
  <title>Layer 1</title>
  <g id="svg_1" opacity="0.2">
   <path id="svg_2" d="m98.34315,50.34315l29.65685,29.65685l-96,0l0,-24a8,8 0 0 1 8,-8l52.68629,0a8,8 0 0 1 5.65686,2.34315z"/>
  </g>
  <path fill="white" stroke="#000000" stroke-opacity="0" id="svg_3" d="m216,72l-84.68652,0l-27.31348,-27.31348a15.89354,15.89354 0 0 0 -11.31348,-4.68652l-52.68652,0a16.01833,16.01833 0 0 0 -16,16l0,144.61523a15.40193,15.40193 0 0 0 15.38477,15.38477l177.5039,0a15.12831,15.12831 0 0 0 15.11133,-15.11133l0,-112.88867a16.01833,16.01833 0 0 0 -16,-16zm-123.31348,-16l16,16l-68.68652,0l0,-16l52.68652,0zm123.31348,144l-176,0l0,-112l176,0l0,112z"/>
 </g>
</svg>