<svg xmlns="http://www.w3.org/2000/svg" viewBox="0.03913043811917305 0.9386364221572876 274.7577819824219 48.561363220214844" data-asc="0.785" width="274.7577819824219" height="48.561363220214844"><defs/><g fill="#ffffff"><g transform="translate(0, 0)"><path d="M25.75 12.90Q26 15.05 25.63 16.77Q25.25 18.50 24.85 19.65Q24 21.85 22.55 23.67Q21.10 25.50 19.38 26.85Q17.65 28.20 15.80 29.10Q13.95 30 12.35 30.35Q11.95 30.45 11.53 30.52Q11.10 30.60 11.15 30.50Q11.05 30.40 11.45 30.20Q11.85 30 12.20 29.85Q15 28.50 17.45 26.65Q19.90 24.80 21.65 22.20Q22.50 20.95 23.15 19.42Q23.80 17.90 24.05 16.25Q24.30 14.60 24.05 12.88Q23.80 11.15 22.90 9.50Q21.75 7.40 19.95 6.07Q18.15 4.75 16 4.07Q13.85 3.40 11.58 3.27Q9.30 3.15 7.20 3.50Q6.90 3.55 6.85 3.55Q6.80 3.55 6.70 3.50Q6.70 3.40 6.88 3.35Q7.05 3.30 7.20 3.20Q8.10 2.80 9.58 2.52Q11.05 2.25 12.85 2.35Q14.65 2.45 16.68 3.02Q18.70 3.60 20.75 4.95Q22.80 6.30 24.13 8.47Q25.45 10.65 25.75 12.90M22.60 10.80Q23.05 12 23.13 13.20Q23.20 14.40 23.03 15.52Q22.85 16.65 22.48 17.67Q22.10 18.70 21.60 19.50Q21.50 19.60 21.35 19.82Q21.20 20.05 21.05 20.27Q20.90 20.50 20.75 20.63Q20.60 20.75 20.55 20.70Q20.50 20.70 20.58 20.50Q20.65 20.30 20.73 20.05Q20.80 19.80 20.90 19.60Q21 19.40 21.05 19.30Q21.50 18.45 21.65 17.22Q21.80 16 21.73 14.70Q21.65 13.40 21.33 12.17Q21 10.95 20.40 10.15Q20.20 9.85 19.60 9.22Q19 8.60 18 7.90Q17 7.20 15.65 6.60Q14.30 6 12.60 5.85Q10.95 5.70 9.28 5.77Q7.60 5.85 6.13 6.10Q4.65 6.35 3.53 6.70Q2.40 7.05 1.85 7.35Q1.60 7.50 1.38 7.55Q1.15 7.60 1.15 7.55Q1.10 7.45 1.25 7.30Q1.40 7.15 1.50 7.05Q2.30 6.25 3.92 5.55Q5.55 4.85 7.53 4.42Q9.50 4 11.58 3.98Q13.65 3.95 15.30 4.50Q16.35 4.85 17.48 5.42Q18.60 6 19.58 6.80Q20.55 7.60 21.35 8.60Q22.15 9.60 22.60 10.80M5.50 29.10Q5.90 26.85 6.58 24.52Q7.25 22.20 7.95 19.80Q8.65 17.55 9.25 15.20Q9.85 12.85 9.95 10.15Q9.95 9.90 9.98 9.90Q10 9.90 10.05 9.90Q10.10 9.90 10.20 10.20Q10.75 11.45 10.63 13.52Q10.50 15.60 10.05 17.82Q9.60 20.05 9.03 22.13Q8.45 24.20 8.15 25.40Q7.90 26.30 7.70 27.07Q7.50 27.85 7.25 28.70Q9.05 27.50 10.78 26.27Q12.50 25.05 14 23.67Q15.50 22.30 16.68 20.75Q17.85 19.20 18.55 17.40Q19.70 14.40 18.48 11.97Q17.25 9.55 13.85 8.50Q11.30 7.75 8.70 7.75Q9.15 9.45 9.13 11.45Q9.10 13.45 8.70 14.80Q8 17.45 7 20.22Q6 23 5 25.40Q4.95 25.50 4.75 25.90Q4.55 26.30 4.40 26.25Q4.30 26.25 4.35 25.82Q4.40 25.40 4.40 25.30Q4.45 24.70 4.60 23.85Q4.75 23 4.90 22.10Q5.05 21.20 5.25 20.32Q5.45 19.45 5.70 18.85Q5.80 18.50 6.10 17.25Q6.40 16 6.70 14.35Q7 12.70 7.25 10.92Q7.50 9.15 7.60 7.75Q7.20 7.75 7 7.80Q7.05 9.85 6.63 11.97Q6.20 14.10 5.55 16.27Q4.90 18.45 4.15 20.65Q3.40 22.85 2.90 25Q2.50 26.65 2.30 28.50Q2.10 30.35 2.15 32.20Q2.20 34.05 2.60 35.83Q3 37.60 3.80 39.10Q3.95 39.35 3.83 39.33Q3.70 39.30 3.55 39.20Q2.20 37.65 1.55 35.80Q0.90 33.95 0.75 31.98Q0.60 30 0.88 27.95Q1.15 25.90 1.60 23.95Q2.10 21.85 2.75 19.75Q3.40 17.65 4 15.63Q4.60 13.60 5.13 11.67Q5.65 9.75 5.90 7.90Q4.45 8.10 3.10 8.47Q1.75 8.85 0.50 9.25Q0.10 9.35 0.05 9.25Q0 9.15 0.18 9.05Q0.35 8.95 0.40 8.90Q1.80 8.05 3.53 7.47Q5.25 6.90 7.10 6.67Q8.95 6.45 10.90 6.57Q12.85 6.70 14.75 7.25Q16.75 7.85 18.05 9.10Q19.35 10.35 19.98 11.92Q20.60 13.50 20.50 15.27Q20.40 17.05 19.60 18.70Q18.55 20.80 16.95 22.52Q15.35 24.25 13.38 25.70Q11.40 27.15 9.18 28.38Q6.95 29.60 4.75 30.70Q4.65 30.75 4.20 30.92Q3.75 31.10 3.70 31Q3.70 30.95 3.98 30.73Q4.25 30.50 4.55 30.30Q5.30 29.90 5.50 29.10M8.85 29.70Q9.60 29.30 10.73 28.65Q11.85 28 12.90 27.40Q13.95 26.80 14.73 26.40Q15.50 26 15.55 26.10Q15.60 26.15 15.38 26.42Q15.15 26.70 14.80 27.02Q14.45 27.35 14.10 27.65Q13.75 27.95 13.55 28.10Q12.55 28.80 11.58 29.35Q10.60 29.90 9.60 30.35Q8.75 30.75 7.88 31.05Q7 31.35 6.10 31.70Q5.85 32.40 5.68 33.10Q5.50 33.80 5.35 34.40Q5.30 34.65 5.23 34.90Q5.15 35.15 5.10 35.15Q5 35.10 4.98 34.77Q4.95 34.45 4.95 34.25Q4.95 33.80 4.95 33.17Q4.95 32.55 5 32.10Q4.65 32.20 4.33 32.40Q4 32.60 4.05 33Q4.05 34.50 4.20 35.70Q4.45 37.40 5.10 38.95Q5.15 39.05 5.23 39.20Q5.30 39.35 5.25 39.40Q5.15 39.45 4.80 39.20Q4.25 38.50 3.85 37.83Q3.45 37.15 3.20 35.75Q3.10 35.30 3.08 34.55Q3.05 33.80 3.10 33.15Q3.10 32.75 3.25 32.45Q3.40 32.15 3.90 31.90Q4.20 31.75 4.93 31.43Q5.65 31.10 6.45 30.75Q7.25 30.40 7.93 30.10Q8.60 29.80 8.85 29.70ZM39.70 18.85Q40.10 19.35 40.33 20.10Q40.55 20.85 40.50 21.72Q40.45 22.60 40.10 23.55Q39.75 24.50 39 25.40Q37.55 27.10 35.83 28.02Q34.10 28.95 32.70 28.95Q31.85 28.95 32.70 28.65Q33.15 28.50 33.78 28.17Q34.40 27.85 35.10 27.38Q35.80 26.90 36.53 26.25Q37.25 25.60 37.85 24.75Q38.85 23.35 39.03 22.02Q39.20 20.70 38.50 20Q37.90 19.40 37.10 19.32Q36.30 19.25 34.70 20.20Q33.25 21.05 32.10 22.30Q30.95 23.55 29.95 24.95Q29.40 25.65 29.23 25.65Q29.05 25.65 29.35 24.75Q29.95 23 31.03 21.50Q32.10 20 33.60 18.95Q34.70 18.20 35.63 17.90Q36.55 17.60 37.33 17.65Q38.10 17.70 38.70 18.02Q39.30 18.35 39.70 18.85M42.40 22.35Q42.20 23.55 41.78 24.38Q41.35 25.20 40.83 25.77Q40.30 26.35 39.78 26.70Q39.25 27.05 38.85 27.35Q38.65 27.50 38.55 27.40Q38.45 27.30 38.70 27.05Q39.60 26.30 40.53 25.02Q41.45 23.75 41.50 22.20Q41.50 19.55 40.20 18.15Q38.90 16.75 36.95 16.92Q35 17.10 32.90 18.45Q31.55 19.30 30.53 20.43Q29.50 21.55 28.75 22.82Q28.00 24.10 27.53 25.45Q27.05 26.80 26.85 28.15Q26.65 29.45 26.48 30.95Q26.30 32.45 26.48 33.90Q26.65 35.35 27.40 36.67Q28.15 38 29.75 38.95Q30.00 39.10 30.28 39.15Q30.55 39.20 30.55 39.25Q30.55 39.35 30.30 39.38Q30.05 39.40 29.75 39.30Q28.50 39.05 27.63 38.27Q26.75 37.50 26.20 36.50Q25.65 35.50 25.35 34.40Q25.05 33.30 25.00 32.40Q24.70 28.45 26.10 24.60Q26.40 23.80 26.88 22.80Q27.35 21.80 28.05 20.77Q28.75 19.75 29.70 18.77Q30.65 17.80 31.85 17.05Q33 16.35 34.25 16Q35.50 15.65 36.75 15.67Q38 15.70 39.10 16.13Q40.20 16.55 41.05 17.40Q41.80 18.20 42.23 19.45Q42.65 20.70 42.40 22.35M37.85 20.55Q38.45 21.25 38 22.72Q37.55 24.20 35.90 25.70Q35 26.55 34.15 27.07Q33.30 27.60 32 28Q31.45 29.90 31.30 31.75Q31.15 33.60 31.40 34.75Q31.45 35.20 31.73 35.63Q32 36.05 32.53 36.27Q33.05 36.50 33.90 36.45Q34.75 36.40 36 35.90Q36.35 35.75 36.43 35.83Q36.50 35.90 36.10 36.15Q35.20 36.85 34.20 37.13Q33.20 37.40 32.33 37.30Q31.45 37.20 30.83 36.70Q30.20 36.20 30.00 35.35Q29.60 33.60 29.65 31.70Q29.70 29.80 30.23 27.95Q30.75 26.10 31.73 24.48Q32.70 22.85 34.15 21.70Q36.85 19.55 37.85 20.55M37.35 36.50Q37 37 36.48 37.48Q35.95 37.95 35.28 38.33Q34.60 38.70 33.88 38.95Q33.15 39.20 32.40 39.20Q31.10 39.20 29.98 38.63Q28.85 38.05 28.25 36.30Q28.15 36.10 28.15 35.92Q28.15 35.75 28.25 35.75Q28.45 35.65 28.65 35.88Q28.85 36.10 29.05 36.35Q29.60 37 30.48 37.50Q31.35 38 32.15 38Q33.65 38 34.75 37.55Q35.85 37.10 36.85 36.35Q37.10 36.20 37.43 36.05Q37.75 35.90 37.35 36.50M36.65 21.90Q36.45 21.50 35.20 22.55Q34.05 23.45 33.38 24.63Q32.70 25.80 32.20 27.20Q33.15 26.75 33.95 26.17Q34.75 25.60 35.45 25.05Q36.20 24.40 36.55 23.35Q36.90 22.30 36.65 21.90ZM48.85 22.60Q48.45 24.30 47.73 26.17Q47 28.05 46.10 29.65Q46.10 29.75 45.98 29.98Q45.85 30.20 45.65 30.20Q45.55 30.20 45.52 29.90Q45.50 29.60 45.55 29.50Q45.55 28.70 45.75 27.38Q45.95 26.05 46.25 25.20Q46.35 24.90 46.58 23.75Q46.80 22.60 46.98 21.18Q47.15 19.75 47.18 18.42Q47.20 17.10 46.85 16.45L46.85 16.25Q47.05 16.10 47.30 16.35Q47.95 16.90 48.33 17.70Q48.70 18.50 48.88 19.38Q49.05 20.25 49.03 21.10Q49 21.95 48.85 22.60M50.80 22.40Q51.35 21.70 51.85 21.40Q52.35 21.10 52.85 20.90Q52.90 20.90 53.10 20.85Q53.30 20.80 53.40 20.95Q53.50 21.10 53.35 21.30Q53.20 21.50 53.10 21.60Q52.75 21.95 52.33 22.38Q51.90 22.80 51.55 23.20Q51.05 23.75 50.75 24.48Q50.45 25.20 50.30 25.95Q51.15 25.05 51.93 24.25Q52.70 23.45 53.60 22.75Q54.75 21.90 55.60 20.55Q56.45 19.20 56.80 16.60Q56.90 16.35 57.05 16.30Q57.20 16.25 57.20 16.65Q57.35 19.55 56.60 21.25Q55.85 22.95 54.35 24.10Q53.55 24.70 52.75 25.40Q51.95 26.10 51.23 26.95Q50.50 27.80 49.90 28.95Q49.30 30.10 48.85 31.60Q48.50 32.75 48.15 33.77Q47.80 34.80 47.40 35.75Q47.30 36.10 47.10 36.10Q46.95 36.05 46.95 35.60Q46.70 33.20 47.28 30.82Q47.85 28.45 48.65 25.90Q49 24.65 49.48 23.40Q49.95 22.15 49.90 20.55Q49.90 20 50.35 19.40Q50.80 18.80 51.45 18.27Q52.10 17.75 52.80 17.38Q53.50 17 54 16.85Q54.45 16.70 54.45 16.90Q54.45 17.10 54.15 17.40Q53.10 18.35 52.03 19.65Q50.95 20.95 50.80 22.40M46.45 39.20Q46.40 39.25 46.38 39.23Q46.35 39.20 46.10 39.05Q44.60 37.95 43.75 36.65Q42.90 35.35 42.52 33.98Q42.15 32.60 42.20 31.23Q42.25 29.85 42.55 28.55Q42.95 26.80 43.52 25.07Q44.10 23.35 44.60 21.72Q45.10 20.10 45.35 18.52Q45.60 16.95 45.35 15.50Q45.35 15.40 45.50 15.35Q45.55 15.35 45.60 15.42Q45.65 15.50 45.70 15.55Q46.65 17.15 46.65 18.82Q46.65 20.50 46.20 22.22Q45.75 23.95 45.08 25.73Q44.40 27.50 44 29.30Q43.50 31.60 43.93 34.20Q44.35 36.80 46.25 38.85Q46.35 39 46.45 39.05Q46.55 39.10 46.45 39.20M47.95 39.25Q47.85 39.25 47.75 39.20L47.55 39.10Q46.85 38.65 46.30 38.13Q45.75 37.60 45.35 36.60Q45.20 36.25 45.10 35.67Q45 35.10 44.98 34.60Q44.95 34.10 45.02 33.75Q45.10 33.40 45.30 33.45Q45.45 33.45 45.63 33.85Q45.80 34.25 45.90 34.65Q46 35.20 46.13 35.70Q46.25 36.20 46.45 36.60Q47 37.85 47.90 39Q48 39.25 47.95 39.25M56.10 16.80Q56.10 17.85 55.50 18.65Q54.90 19.45 54.05 20Q53.90 20.10 53.85 19.97Q53.80 19.85 53.80 19.80Q53.80 19.50 54.05 19.07Q54.30 18.65 54.63 18.17Q54.95 17.70 55.25 17.20Q55.55 16.70 55.65 16.30Q55.80 16.05 55.95 16.30Q56.10 16.55 56.10 16.80ZM62.25 20.80Q62.30 20.35 62.55 19.72Q62.80 19.10 63.23 18.52Q63.65 17.95 64.25 17.47Q64.85 17 65.60 16.85Q67.20 16.55 68.25 17.05Q69.30 17.55 69.85 18.20Q70.05 18.50 70 18.55Q69.90 18.65 69.65 18.50Q69.35 18.30 68.67 18.15Q68 18 67.22 18.07Q66.45 18.15 65.72 18.55Q65 18.95 64.55 19.85Q64.15 20.70 64 21.60Q63.85 22.50 63.83 23.27Q63.80 24.05 63.85 24.60Q63.90 25.15 63.90 25.35Q64 25.90 64.08 26.73Q64.15 27.55 64.15 28.40Q64.15 29.25 64.10 30.07Q64.05 30.90 63.90 31.50Q63.85 31.65 63.78 32Q63.70 32.35 63.60 32.35Q63.35 32.35 63.35 32Q63.35 31.65 63.35 31.50Q63.25 30.25 63 28.98Q62.75 27.70 62.53 26.35Q62.30 25 62.20 23.63Q62.10 22.25 62.25 20.80M60.50 30.70Q60.55 29.70 60.33 27.88Q60.10 26.05 60.15 23.65Q60.20 22.40 60.40 21.07Q60.60 19.75 61.35 18.45Q62.15 17.05 63.38 16.38Q64.60 15.70 65.50 15.75Q65.65 15.75 65.80 15.75Q65.95 15.75 65.95 15.80Q65.95 15.90 65.90 15.88Q65.85 15.85 65.55 15.95Q64.65 16.20 63.95 16.77Q63.25 17.35 62.75 18.10Q62.25 18.85 61.95 19.65Q61.65 20.45 61.60 21.10Q61.30 23.85 61.65 25.90Q61.90 27.55 62.05 29.32Q62.20 31.10 61.93 32.58Q61.65 34.05 60.88 35.02Q60.10 36 58.50 36.10Q58.35 36.10 58.13 36.08Q57.90 36.05 57.90 35.95Q57.90 35.85 58.35 35.60Q59.65 35 60.05 33.85Q60.45 32.70 60.50 30.70M55.20 36.60Q55.90 37.70 57.43 38.23Q58.95 38.75 61.05 38.15Q62.10 37.85 62.90 37.10Q63.70 36.35 64.22 35.42Q64.75 34.50 65.03 33.50Q65.30 32.50 65.35 31.65Q65.40 30.25 65.28 28.90Q65.15 27.55 64.97 26.27Q64.80 25 64.67 23.80Q64.55 22.60 64.65 21.45Q64.75 20.20 65.35 19.55Q65.95 18.90 66.83 18.72Q67.70 18.55 68.65 18.85Q69.60 19.15 70.40 19.80Q70.60 19.90 70.55 20.05Q70.55 20.15 70.45 20.10Q70.35 20.05 70.25 20Q68.40 19.40 67.38 19.65Q66.35 19.90 66.25 21.45Q66.15 23.25 66.53 25.67Q66.90 28.10 66.80 31.05Q66.85 32.05 66.58 33.35Q66.30 34.65 65.67 35.88Q65.05 37.10 64.03 38.05Q63 39 61.60 39.25Q58.95 39.65 57.38 38.95Q55.80 38.25 55.10 36.80Q55 36.50 55 36.45L55.05 36.45Q55.05 36.45 55.20 36.60M57.40 36.60Q58.35 36.85 59.70 36.80Q60.15 36.75 60.80 36.55Q61.45 36.35 61.50 36.45Q61.65 36.65 61.20 36.95Q60.75 37.25 60.05 37.48Q59.35 37.70 58.60 37.77Q57.85 37.85 57.35 37.65Q56.40 37.25 55.98 36.77Q55.55 36.30 55.20 35.60L55.10 35.40Q55 35.20 55.05 35.15Q55.10 35.10 55.20 35.15Q55.25 35.20 55.25 35.25Q55.85 35.80 56.27 36.08Q56.70 36.35 57.40 36.60ZM86.45 25.40Q86.60 24.05 86.50 22.55Q86.40 21.05 85.88 19.77Q85.35 18.50 84.28 17.65Q83.20 16.80 81.45 16.80Q79.10 16.80 77.35 18.07Q75.60 19.35 74.35 21.22Q73.10 23.10 72.40 25.23Q71.70 27.35 71.50 29.10Q71.20 31.50 71.43 33.25Q71.65 35 72.25 36.13Q72.85 37.25 73.78 37.80Q74.70 38.35 75.80 38.35Q77.35 38.40 79.08 37.48Q80.80 36.55 82.30 34.88Q83.80 33.20 84.93 30.77Q86.05 28.35 86.45 25.40M70.35 28.85Q70.55 26.85 71.35 24.45Q72.15 22.05 73.58 20Q75 17.95 77 16.57Q79 15.20 81.65 15.20Q83.65 15.20 84.95 16.15Q86.25 17.10 86.95 18.57Q87.65 20.05 87.85 21.77Q88.05 23.50 87.85 25.05Q87.40 28.65 86.10 31.30Q84.80 33.95 83.05 35.73Q81.30 37.50 79.35 38.38Q77.40 39.25 75.60 39.25Q74.25 39.25 73.18 38.65Q72.10 38.05 71.38 36.77Q70.65 35.50 70.38 33.52Q70.10 31.55 70.35 28.85M75.95 35.90Q75.70 35.90 75.45 35.73Q75.20 35.55 75.05 35.30Q74.90 35.05 74.85 34.80Q74.80 34.55 75.05 34.45Q75.20 34.40 75.45 34.80Q75.70 35.20 76 35.20Q76.50 35.20 77.18 34.55Q77.85 33.90 78.48 33.02Q79.10 32.15 79.58 31.30Q80.05 30.45 80.25 30.05Q80.45 29.65 80.65 29.02Q80.85 28.40 81.03 27.75Q81.20 27.10 81.33 26.48Q81.45 25.85 81.50 25.40Q81.75 23.15 81.40 21.93Q81.05 20.70 80.25 20.70Q79.65 20.70 79 21.07Q78.35 21.45 77.78 22.05Q77.20 22.65 76.75 23.38Q76.30 24.10 76.10 24.85Q75.85 25.70 75.75 25.70Q75.60 25.70 75.60 24.85Q75.75 23.90 76.25 22.97Q76.75 22.05 77.50 21.32Q78.25 20.60 79.15 20.13Q80.05 19.65 81 19.65Q81.95 19.65 82.43 20.32Q82.90 21 83.10 21.97Q83.30 22.95 83.28 23.98Q83.25 25 83.15 25.60Q82.95 26.95 82.53 28.23Q82.10 29.50 81.50 30.80Q81.20 31.40 80.60 32.27Q80 33.15 79.23 33.95Q78.45 34.75 77.58 35.33Q76.70 35.90 75.95 35.90M77.55 36.85Q77.60 37.15 77.08 37.35Q76.55 37.55 76 37.55Q74.45 37.50 73.63 36.55Q72.80 35.60 72.48 34.30Q72.15 33 72.18 31.60Q72.20 30.20 72.30 29.25Q72.50 27.60 73.10 25.55Q73.70 23.50 74.80 21.70Q75.90 19.90 77.50 18.67Q79.10 17.45 81.30 17.45Q82.75 17.45 83.63 18.20Q84.50 18.95 84.93 20.05Q85.35 21.15 85.43 22.43Q85.50 23.70 85.35 24.75Q85.25 25.90 85 26.85Q84.75 27.80 84.30 28.95Q84.15 29.30 83.90 29.75Q83.65 30.20 83.35 30.15Q83.20 30.10 83.28 29.75Q83.35 29.40 83.48 28.88Q83.60 28.35 83.75 27.77Q83.90 27.20 83.95 26.70Q84.05 25.85 84.08 24.57Q84.10 23.30 83.88 22.10Q83.65 20.90 83.05 20.05Q82.45 19.20 81.25 19.20Q79.50 19.20 78.03 20.32Q76.55 21.45 75.45 23.07Q74.35 24.70 73.68 26.48Q73 28.25 72.85 29.60Q72.75 30.40 72.80 31.60Q72.85 32.80 73.18 33.98Q73.50 35.15 74.25 36Q75 36.85 76.30 36.90Q76.70 36.95 77.08 36.83Q77.45 36.70 77.55 36.85ZM105.60 21.30Q105.70 22.85 105.40 24.27Q105.10 25.70 104.65 26.90Q104.55 27.15 104.33 27.45Q104.10 27.75 103.90 27.65Q103.80 27.65 103.85 27.30Q103.90 26.95 103.90 26.80Q103.95 26.25 103.97 25.42Q104 24.60 104 23.75Q104 22.90 103.92 22.13Q103.85 21.35 103.70 20.80Q103.25 19.20 102.28 19.02Q101.30 18.85 100.30 19.55Q99.30 20.25 98.40 21.50Q97.50 22.75 97.20 23.95Q97.50 23.50 97.97 22.88Q98.45 22.25 99.05 21.68Q99.65 21.10 100.33 20.72Q101 20.35 101.60 20.40Q102.25 20.45 102.53 21.10Q102.80 21.75 102.85 22.70Q102.90 23.65 102.75 24.75Q102.60 25.85 102.40 26.80Q102.05 28.35 101.80 30Q101.55 31.65 101.63 33.23Q101.70 34.80 102.17 36.27Q102.65 37.75 103.80 39Q103.90 39.15 103.95 39.25Q104 39.35 103.70 39.20Q102.40 38.45 101.63 37.45Q100.85 36.45 100.45 35.30Q100.05 34.15 99.97 32.90Q99.90 31.65 100 30.40Q100.20 28.60 100.60 27.25Q101 25.90 101.20 24.20Q101.30 23.15 101.05 22.82Q100.80 22.50 100.45 22.45Q99.95 22.40 99.33 22.97Q98.70 23.55 98.03 24.60Q97.35 25.65 96.72 27.05Q96.10 28.45 95.65 30Q95.25 31.55 94.67 33.23Q94.10 34.90 93.60 36.10Q93.40 36.55 93.30 36.55Q93.20 36.55 93.13 36.35Q93.05 36.15 93.05 36.05Q92.85 33.55 93.50 31.10Q94.15 28.65 95 26.15Q95.50 24.60 95.90 23.40Q96.30 22.20 96.30 20.35Q96.30 19.55 96.70 18.67Q97.10 17.80 97.88 17.07Q98.65 16.35 99.80 15.90Q100.95 15.45 102.40 15.50Q104.80 15.55 106.10 16.63Q107.40 17.70 107.92 19.35Q108.45 21 108.38 22.93Q108.30 24.85 107.95 26.65Q107.65 28 107.25 29.10Q106.85 30.20 106.40 31.15Q105.95 32.10 105.55 32.95Q105.15 33.80 104.90 34.65Q104.85 34.80 104.80 34.98Q104.75 35.15 104.65 35.15Q104.55 35.15 104.50 34.95Q104.45 34.75 104.45 34.50Q104.35 32.80 104.80 31.23Q105.25 29.65 105.75 27.98Q106.25 26.30 106.50 24.45Q106.75 22.60 106.30 20.35Q105.85 17.95 104.10 17.15Q102.35 16.35 100.10 17.25Q99.80 17.40 99.30 17.70Q98.80 18 98.33 18.50Q97.85 19 97.45 19.67Q97.05 20.35 96.95 21.15Q97.55 20.25 98.35 19.45Q99.15 18.65 100.05 18.17Q100.95 17.70 101.88 17.60Q102.80 17.50 103.70 17.95Q104.75 18.50 105.15 19.47Q105.55 20.45 105.60 21.30M95.40 22.65Q94.85 24.55 93.92 26.40Q93 28.25 92.40 29.95Q92.35 30.05 92.22 30.32Q92.10 30.60 91.90 30.55Q91.80 30.50 91.78 30.23Q91.75 29.95 91.75 29.80Q91.75 29 92.03 27.67Q92.30 26.35 92.60 25.50Q92.70 25.20 92.97 23.98Q93.25 22.75 93.47 21.30Q93.70 19.85 93.78 18.50Q93.85 17.15 93.50 16.55Q93.30 16.20 93.50 16.20Q93.65 16.20 93.90 16.45Q94.50 17 94.88 17.80Q95.25 18.60 95.42 19.47Q95.60 20.35 95.58 21.20Q95.55 22.05 95.40 22.65M105.60 39.20Q105.50 39.25 105.20 39.15Q105.05 39.10 104.95 39.05Q104.25 38.60 103.75 38.02Q103.25 37.45 102.75 36.05Q102.60 35.55 102.53 34.77Q102.45 34 102.50 33.25Q102.55 32.50 102.67 31.98Q102.80 31.45 103.05 31.45Q103.15 31.45 103.28 32.02Q103.40 32.60 103.53 33.35Q103.65 34.10 103.80 34.85Q103.95 35.60 104.05 35.95Q104.30 36.70 104.55 37.45Q104.80 38.20 105.35 38.75Q105.45 38.85 105.55 39.02Q105.65 39.20 105.60 39.20M92.10 39.30Q90.55 38.25 89.72 37Q88.90 35.75 88.60 34.40Q88.30 33.05 88.38 31.65Q88.45 30.25 88.75 28.90Q89.15 27.10 89.78 25.32Q90.40 23.55 90.97 21.88Q91.55 20.20 91.88 18.60Q92.20 17 91.95 15.55Q91.95 15.35 92 15.35Q92.10 15.35 92.25 15.60Q93.15 17.20 93.10 18.90Q93.05 20.60 92.55 22.38Q92.05 24.15 91.33 25.98Q90.60 27.80 90.20 29.65Q89.95 30.80 89.88 32.08Q89.80 33.35 90.05 34.60Q90.30 35.85 90.88 37.05Q91.45 38.25 92.45 39.20Q92.65 39.30 92.55 39.40Q92.45 39.50 92.33 39.42Q92.20 39.35 92.10 39.30M94 39.50Q93.85 39.60 93.60 39.35Q93.05 38.95 92.53 38.50Q92 38.05 91.50 37.05Q91.30 36.70 91.20 36.15Q91.10 35.60 91.10 35.08Q91.10 34.55 91.17 34.20Q91.25 33.85 91.40 33.85Q91.60 33.90 91.72 34.40Q91.85 34.90 91.95 35.05Q92.15 35.60 92.30 36.08Q92.45 36.55 92.65 37Q92.95 37.70 93.25 38.20Q93.55 38.70 93.95 39.20Q94 39.25 94.05 39.35Q94.10 39.45 94 39.50ZM128.75 21.65Q128.35 23.65 127.40 25.65Q126.45 27.65 125.60 29.40Q125.55 29.50 125.38 29.75Q125.20 30 125.10 30Q124.95 29.95 124.95 29.67Q124.95 29.40 124.95 29.30Q125 28.85 125.13 28.23Q125.25 27.60 125.35 26.92Q125.45 26.25 125.57 25.63Q125.70 25 125.85 24.50Q126.30 22.80 126.60 21.57Q126.90 20.35 127.05 19.35Q127.20 18.35 127.22 17.45Q127.25 16.55 127.10 15.50Q127.05 15.10 127.15 15Q127.25 14.95 127.40 15.10Q127.55 15.25 127.65 15.40Q128.50 16.75 128.80 18.38Q129.10 20 128.75 21.65M129.95 18.30Q130.60 19.25 130.60 20.80Q130.60 22.35 130.30 23.98Q130 25.60 129.55 27.10Q129.10 28.60 128.90 29.50Q128.50 31.25 127.80 33Q127.10 34.75 126.60 36.10Q126.55 36.25 126.45 36.42Q126.35 36.60 126.25 36.60Q126.15 36.60 126.15 36.40Q126.15 36.20 126.15 36.05Q126 33.30 126.75 30.67Q127.50 28.05 128.35 25.35Q128.85 23.70 129.30 21.97Q129.75 20.25 129.70 18.20Q129.70 18 129.75 18L129.95 18.30M125.25 17.45Q122.20 18.70 120.07 21.02Q117.95 23.35 116.80 26.25Q116.30 27.55 116.05 28.57Q115.80 29.60 115.65 30.80Q115.60 31.05 115.80 31.30Q116 31.55 116.20 31.30Q117.10 30.20 118.50 28.50Q119.90 26.80 121.30 24.90Q122.70 23 123.82 21.05Q124.95 19.10 125.25 17.45M121.90 34.40Q121.15 35.45 120.45 36.35Q119.75 37.25 118.90 37.92Q118.05 38.60 117 39Q115.95 39.40 114.60 39.45Q112.35 39.55 111.17 38.30Q110 37.05 109.55 35.25Q109.10 33.45 109.22 31.52Q109.35 29.60 109.75 28.35Q110.30 26.60 111.07 25.02Q111.85 23.45 112.72 22.18Q113.60 20.90 114.52 19.97Q115.45 19.05 116.35 18.55Q116.40 18.55 116.57 18.45Q116.75 18.35 116.75 18.50Q116.80 18.50 116.70 18.65Q116.60 18.80 116.50 18.90Q113.90 21.60 112.38 25Q110.85 28.40 110.65 32Q110.60 32.90 110.72 33.95Q110.85 35 111.22 35.92Q111.60 36.85 112.30 37.48Q113 38.10 114.20 38.10Q115.15 38.10 115.95 37.77Q116.75 37.45 117.45 36.92Q118.15 36.40 118.72 35.77Q119.30 35.15 119.75 34.60Q120.75 33.35 121.60 32Q121.60 31 121.72 30.05Q121.85 29.10 122.10 28.15Q122.25 27.45 122.38 27.02Q122.50 26.60 122.63 26.23Q122.75 25.85 122.88 25.42Q123 25 123.25 24.30Q122.45 25.70 121.67 26.92Q120.90 28.15 120.02 29.27Q119.15 30.40 118.22 31.48Q117.30 32.55 116.20 33.65Q115.35 34.50 114.80 34.20Q114.25 33.90 114.15 32.80Q114.05 31.10 114.32 29.50Q114.60 27.90 115.30 26.15Q115.95 24.55 116.92 23.05Q117.90 21.55 119.17 20.32Q120.45 19.10 122 18.22Q123.55 17.35 125.30 17.05Q125.40 16.50 125.47 16.10Q125.55 15.70 125.60 15.30Q125.70 14.75 125.70 14.75Q125.80 14.70 125.92 14.85Q126.05 15 126.15 15.25Q126.75 16.90 126.55 18.55Q126.35 20.20 125.82 21.90Q125.30 23.60 124.60 25.38Q123.90 27.15 123.45 28.95Q122.85 31.50 123.13 34.23Q123.40 36.95 125.25 39.15Q125.40 39.35 125.40 39.35Q125.35 39.40 125.10 39.25Q123.65 38.35 122.92 37.08Q122.20 35.80 121.90 34.40M123.65 16.70Q123.75 16.80 123.63 16.85Q123.50 16.90 123.10 17Q122.45 17.20 121.52 17.75Q120.60 18.30 119.57 19.15Q118.55 20 117.55 21.13Q116.55 22.25 115.80 23.55Q115.05 24.90 114.52 26.20Q114 27.50 113.67 28.57Q113.35 29.65 113.20 30.42Q113.05 31.20 113.05 31.50Q113.05 32.25 113.05 33.08Q113.05 33.90 113.25 34.55Q113.45 35.20 113.95 35.55Q114.45 35.90 115.45 35.75Q115.50 35.75 115.70 35.67Q115.90 35.60 116.10 35.52Q116.30 35.45 116.47 35.40Q116.65 35.35 116.70 35.35Q116.75 35.45 116.63 35.60Q116.50 35.75 116.30 35.92Q116.10 36.10 115.92 36.25Q115.75 36.40 115.70 36.45Q114.45 37.20 113.60 36.90Q112.75 36.60 112.27 35.77Q111.80 34.95 111.63 33.83Q111.45 32.70 111.50 31.80Q111.60 30.05 112.05 28.32Q112.50 26.60 113.20 24.85Q113.75 23.50 114.85 22.07Q115.95 20.65 117.32 19.45Q118.70 18.25 120.20 17.47Q121.70 16.70 123.10 16.65Q123.60 16.65 123.65 16.70M126.60 39.15Q126.70 39.30 126.65 39.35Q126.50 39.35 126.25 39.25Q126.10 39.15 125.45 38.65Q124.80 38.15 124.50 37.05Q124.40 36.65 124.32 36.02Q124.25 35.40 124.25 34.85Q124.25 34.30 124.32 33.90Q124.40 33.50 124.55 33.50Q124.70 33.50 124.88 34.10Q125.05 34.70 125.10 34.85Q125.25 35.55 125.38 36.08Q125.50 36.60 125.65 37.05Q125.85 37.60 126.17 38.30Q126.50 39 126.60 39.15ZM140.55 13.20Q140.85 12.10 140.95 10.52Q141.05 8.95 140.95 7.38Q140.85 5.80 140.47 4.40Q140.10 3 139.35 2.25Q139.05 1.95 138.88 2.05Q138.70 2.15 138.95 2.55Q139.45 3.45 139.43 5.32Q139.40 7.20 139.10 9.40Q138.80 11.60 138.30 13.80Q137.80 16 137.30 17.65Q137.05 18.35 136.80 19.40Q136.55 20.45 136.28 21.52Q136 22.60 135.80 23.63Q135.60 24.65 135.50 25.35Q135.50 25.50 135.45 25.92Q135.40 26.35 135.55 26.45Q135.65 26.45 135.85 26.02Q136.05 25.60 136.10 25.50Q137.30 22.70 138.55 19.52Q139.80 16.35 140.55 13.20M139.40 25.40Q139.65 24.50 140.10 23.05Q140.55 21.60 141 19.88Q141.45 18.15 141.88 16.27Q142.30 14.40 142.53 12.63Q142.75 10.85 142.68 9.35Q142.60 7.85 142.15 6.90Q142.10 6.75 141.95 6.60Q141.80 6.45 141.80 6.85Q141.90 10.05 141.15 13.25Q140.40 16.45 139.55 19.05Q138.90 21.10 138.22 23.15Q137.55 25.20 137.07 27.23Q136.60 29.25 136.47 31.20Q136.35 33.15 136.85 34.95Q137.05 35.60 137.20 35.60Q137.35 35.55 137.35 34.95Q137.35 34.05 137.53 32.92Q137.70 31.80 138 30.55Q138.30 29.30 138.65 27.98Q139 26.65 139.40 25.40M138.45 39.10Q136.70 38.90 135.32 37.35Q133.95 35.80 133.50 33.55Q133.05 31.40 133.28 29.17Q133.50 26.95 134.05 25Q134.85 22 135.95 18.82Q137.05 15.65 137.82 12.55Q138.60 9.45 138.70 6.57Q138.80 3.70 137.70 1.30Q137.60 1.25 137.55 1.07Q137.50 0.90 137.40 0.95Q137.25 0.95 137.35 1.30Q137.75 3.60 137.40 6.27Q137.05 8.95 136.28 11.82Q135.50 14.70 134.53 17.75Q133.55 20.80 132.70 23.85Q132.05 26.10 131.82 28.63Q131.60 31.15 132.15 33.70Q132.45 35 133.07 36.05Q133.70 37.10 134.55 37.83Q135.40 38.55 136.40 38.95Q137.40 39.35 138.45 39.30L138.60 39.30Q138.65 39.30 138.75 39.25Q138.75 39.10 138.45 39.10M136.95 36.60Q136.05 35.55 135.50 33.90Q135.45 33.75 135.35 33.42Q135.25 33.10 135.15 32.77Q135.05 32.45 134.95 32.17Q134.85 31.90 134.80 31.90Q134.60 31.90 134.60 32.55Q134.60 33.20 134.75 34.05Q134.90 34.90 135.20 35.77Q135.50 36.65 135.90 37.15Q136.70 38.05 137.53 38.25Q138.35 38.45 139.20 38.45Q139.50 38.45 139.68 38.27Q139.85 38.10 139.40 38Q137.95 37.85 136.95 36.60ZM169.15 4.60Q169.05 5.30 168.53 5.85Q168.00 6.40 167.30 6.77Q166.60 7.15 165.83 7.38Q165.05 7.60 164.40 7.60Q163.60 7.60 162.53 7.40Q161.45 7.20 160.48 6.90Q159.50 6.60 158.83 6.30Q158.15 6 158.15 5.75Q158.15 5.65 158.35 5.60Q158.55 5.55 158.88 5.50Q159.20 5.45 159.55 5.45Q159.90 5.45 160.15 5.45Q161.15 5.45 162.38 5.55Q163.60 5.65 164.60 5.60Q165.40 5.60 165.95 5.55Q166.50 5.50 166.98 5.38Q167.45 5.25 167.90 5.07Q168.35 4.90 168.95 4.60Q169.05 4.50 169.15 4.60M169.65 3Q169.65 3.50 169.18 3.85Q168.70 4.20 168.08 4.42Q167.45 4.65 166.78 4.77Q166.10 4.90 165.75 4.90Q163.90 4.90 162.00 4.50Q160.10 4.10 158.25 4.10Q156.05 4.10 154.30 5.13Q152.55 6.15 151.55 8Q151.45 8.15 151.30 8.15Q151.15 8.15 151.25 7.90Q152.05 5.45 153.80 4Q155.55 2.55 158.35 2.55Q160.45 2.55 162.53 3.02Q164.60 3.50 166.70 3.50Q167.45 3.50 168.28 3.32Q169.10 3.15 169.30 3.05Q169.35 3 169.50 2.98Q169.65 2.95 169.65 3M155.50 6.05Q155.50 6.15 155.20 6.40Q154.90 6.65 154.50 6.92Q154.10 7.20 153.73 7.42Q153.35 7.65 153.20 7.75Q152.75 8.15 152.40 8.57Q152.05 9 151.65 9.45Q151.60 9.45 151.60 9.52Q151.60 9.60 151.50 9.60Q151.45 9.60 151.45 9.45Q151.45 8.85 151.80 8.20Q152.15 7.55 152.68 7.02Q153.20 6.50 153.88 6.17Q154.55 5.85 155.20 5.85Q155.50 5.85 155.50 6.05M166.85 14.90Q166.90 17.35 166.35 20.02Q165.80 22.70 164.80 25.42Q163.80 28.15 162.53 30.80Q161.25 33.45 159.85 35.80Q158.45 38.15 157.05 40.15Q155.65 42.15 154.50 43.55Q154.45 43.60 154.35 43.73Q154.25 43.85 154.15 43.98Q154.05 44.10 153.95 44.13Q153.85 44.15 153.85 43.95Q153.80 43.80 154.43 42.58Q155.05 41.35 155.98 39.55Q156.90 37.75 158.03 35.65Q159.15 33.55 160.15 31.63Q161.15 29.70 161.90 28.23Q162.65 26.75 162.85 26.20Q163.40 24.70 163.98 23.02Q164.55 21.35 165.03 19.55Q165.50 17.75 165.78 15.85Q166.05 13.95 166.00 12Q166.00 11.60 166.05 11.60Q166.15 11.60 166.20 11.67Q166.25 11.75 166.35 12.10Q166.50 12.60 166.68 13.52Q166.85 14.45 166.85 14.90M162.80 9.80Q162.40 13.90 161.55 17.17Q160.70 20.45 159.68 23.10Q158.65 25.75 157.53 27.90Q156.40 30.05 155.50 31.85Q154.55 33.75 153.73 35.65Q152.90 37.55 152.28 39.52Q151.65 41.50 151.28 43.60Q150.90 45.70 150.90 48.05Q150.90 48.60 150.80 48.50Q150.70 48.50 150.63 48.23Q150.55 47.95 150.45 47.58Q150.35 47.20 150.28 46.85Q150.20 46.50 150.20 46.25Q149.95 43.95 150.23 41.92Q150.50 39.90 151.08 38.02Q151.65 36.15 152.45 34.40Q153.25 32.65 154.00 30.85Q154.80 28.95 155.98 26.45Q157.15 23.95 158.30 21.18Q159.45 18.40 160.40 15.47Q161.35 12.55 161.70 9.80Q159.80 9.70 157.78 9.38Q155.75 9.05 154.00 8.55Q153.90 8.50 153.80 8.45Q153.70 8.40 153.70 8.30Q153.65 8.15 153.93 8.05Q154.20 7.95 154.25 7.95Q155.85 7.55 157.25 7.55Q159.15 7.55 161.00 7.92Q162.85 8.30 164.75 8.30Q165.35 8.30 166.03 8.17Q166.70 8.05 166.95 7.95Q167.15 7.85 167.15 7.97Q167.15 8.10 167.10 8.20Q166.65 8.75 166.03 9.07Q165.40 9.40 164.70 9.60Q164.85 10.25 164.90 10.77Q164.95 11.30 165.00 11.70Q165.30 14.25 164.73 17.07Q164.15 19.90 163.05 22.72Q161.95 25.55 160.45 28.27Q158.95 31 157.40 33.30Q157.00 33.85 156.83 33.65Q156.65 33.45 156.90 32.80Q157.20 32 157.85 30.57Q158.50 29.15 159.20 27.63Q159.90 26.10 160.50 24.75Q161.10 23.40 161.30 22.80Q162.60 18.75 163.18 15.47Q163.75 12.20 163.65 9.75Q163.40 9.80 163.20 9.80Q163.00 9.80 162.80 9.80M154.05 39Q154.05 39.30 153.90 40.08Q153.75 40.85 153.55 41.75Q153.35 42.65 153.15 43.48Q152.95 44.30 152.90 44.70Q152.65 45.75 152.53 46.80Q152.40 47.85 152.30 49Q152.30 49.10 152.28 49.30Q152.25 49.50 152.10 49.50Q152.00 49.45 151.95 49.20Q151.90 48.95 151.85 48.85Q151.75 48.40 151.63 47.67Q151.50 46.95 151.50 46.55Q151.50 45.30 151.75 43.92Q152.00 42.55 152.35 41.40Q152.70 40.25 153.10 39.50Q153.50 38.75 153.85 38.80Q153.95 38.85 153.98 38.90Q154.00 38.95 154.05 39ZM184.00 25.40Q184.15 24.05 184.05 22.55Q183.95 21.05 183.43 19.77Q182.90 18.50 181.83 17.65Q180.75 16.80 179.00 16.80Q176.65 16.80 174.90 18.07Q173.15 19.35 171.90 21.22Q170.65 23.10 169.95 25.23Q169.25 27.35 169.05 29.10Q168.75 31.50 168.98 33.25Q169.20 35 169.80 36.13Q170.40 37.25 171.33 37.80Q172.25 38.35 173.35 38.35Q174.90 38.40 176.63 37.48Q178.35 36.55 179.85 34.88Q181.35 33.20 182.48 30.77Q183.60 28.35 184.00 25.40M167.90 28.85Q168.10 26.85 168.90 24.45Q169.70 22.05 171.13 20Q172.55 17.95 174.55 16.57Q176.55 15.20 179.20 15.20Q181.20 15.20 182.50 16.15Q183.80 17.10 184.50 18.57Q185.20 20.05 185.40 21.77Q185.60 23.50 185.40 25.05Q184.95 28.65 183.65 31.30Q182.35 33.95 180.60 35.73Q178.85 37.50 176.90 38.38Q174.95 39.25 173.15 39.25Q171.80 39.25 170.73 38.65Q169.65 38.05 168.93 36.77Q168.20 35.50 167.93 33.52Q167.65 31.55 167.90 28.85M173.50 35.90Q173.25 35.90 173.00 35.73Q172.75 35.55 172.60 35.30Q172.45 35.05 172.40 34.80Q172.35 34.55 172.60 34.45Q172.75 34.40 173.00 34.80Q173.25 35.20 173.55 35.20Q174.05 35.20 174.73 34.55Q175.40 33.90 176.03 33.02Q176.65 32.15 177.13 31.30Q177.60 30.45 177.80 30.05Q178.00 29.65 178.20 29.02Q178.40 28.40 178.58 27.75Q178.75 27.10 178.88 26.48Q179.00 25.85 179.05 25.40Q179.30 23.15 178.95 21.93Q178.60 20.70 177.80 20.70Q177.20 20.70 176.55 21.07Q175.90 21.45 175.33 22.05Q174.75 22.65 174.30 23.38Q173.85 24.10 173.65 24.85Q173.40 25.70 173.30 25.70Q173.15 25.70 173.15 24.85Q173.30 23.90 173.80 22.97Q174.30 22.05 175.05 21.32Q175.80 20.60 176.70 20.13Q177.60 19.65 178.55 19.65Q179.50 19.65 179.98 20.32Q180.45 21 180.65 21.97Q180.85 22.95 180.83 23.98Q180.80 25 180.70 25.60Q180.50 26.95 180.08 28.23Q179.65 29.50 179.05 30.80Q178.75 31.40 178.15 32.27Q177.55 33.15 176.78 33.95Q176.00 34.75 175.13 35.33Q174.25 35.90 173.50 35.90M175.10 36.85Q175.15 37.15 174.63 37.35Q174.10 37.55 173.55 37.55Q172.00 37.50 171.18 36.55Q170.35 35.60 170.03 34.30Q169.70 33 169.73 31.60Q169.75 30.20 169.85 29.25Q170.05 27.60 170.65 25.55Q171.25 23.50 172.35 21.70Q173.45 19.90 175.05 18.67Q176.65 17.45 178.85 17.45Q180.30 17.45 181.18 18.20Q182.05 18.95 182.48 20.05Q182.90 21.15 182.98 22.43Q183.05 23.70 182.90 24.75Q182.80 25.90 182.55 26.85Q182.30 27.80 181.85 28.95Q181.70 29.30 181.45 29.75Q181.20 30.20 180.90 30.15Q180.75 30.10 180.83 29.75Q180.90 29.40 181.03 28.88Q181.15 28.35 181.30 27.77Q181.45 27.20 181.50 26.70Q181.60 25.85 181.63 24.57Q181.65 23.30 181.43 22.10Q181.20 20.90 180.60 20.05Q180.00 19.20 178.80 19.20Q177.05 19.20 175.58 20.32Q174.10 21.45 173.00 23.07Q171.90 24.70 171.23 26.48Q170.55 28.25 170.40 29.60Q170.30 30.40 170.35 31.60Q170.40 32.80 170.73 33.98Q171.05 35.15 171.80 36Q172.55 36.85 173.85 36.90Q174.25 36.95 174.63 36.83Q175.00 36.70 175.10 36.85ZM203.10 23.45Q202.50 25.30 201.68 27Q200.85 28.70 199.95 30.40Q199.85 30.50 199.65 30.88Q199.45 31.25 199.30 31.15Q199.20 31.15 199.23 30.85Q199.25 30.55 199.25 30.40Q199.30 30 199.48 29.25Q199.65 28.50 199.88 27.67Q200.10 26.85 200.33 26.07Q200.55 25.30 200.70 24.85Q201.55 22.15 201.80 20.05Q202.05 17.95 201.50 16.50Q201.40 16.25 201.50 16.25Q201.60 16.25 201.70 16.35Q201.80 16.45 201.85 16.50Q202.40 17.10 202.75 18.02Q203.10 18.95 203.25 19.92Q203.40 20.90 203.35 21.85Q203.30 22.80 203.10 23.45M204.45 19.85Q205.10 20.85 205.05 22.35Q205 23.85 204.68 25.45Q204.35 27.05 203.88 28.50Q203.40 29.95 203.15 30.80Q202.65 32.45 201.95 34.17Q201.25 35.90 200.70 37.15Q200.50 37.60 200.40 37.55Q200.25 37.50 200.23 37.33Q200.20 37.15 200.20 37.05Q200.20 34.35 200.98 31.85Q201.75 29.35 202.65 26.80Q203.20 25.15 203.65 23.52Q204.10 21.90 204.10 19.95Q204.10 19.60 204.20 19.60Q204.25 19.60 204.30 19.67Q204.35 19.75 204.45 19.85M194.45 35.55Q194.55 35.70 194.10 36Q193.65 36.30 193.50 36.35Q191.30 37.15 190.08 36.40Q188.85 35.65 188.33 34.15Q187.80 32.65 187.80 30.82Q187.80 29 188 27.55Q188.15 26.30 188.58 24.77Q189 23.25 189.60 21.77Q190.20 20.30 190.98 19.02Q191.75 17.75 192.65 17.05Q192.75 17 192.88 16.90Q193 16.80 193.10 16.80Q193.25 16.85 192.95 17.35Q192.65 17.85 192.23 18.75Q191.80 19.65 191.35 20.82Q190.90 22 190.48 23.30Q190.05 24.60 189.80 25.90Q189.55 27.20 189.45 28.40Q189.35 29.60 189.35 30.55Q189.35 31.50 189.40 32.15Q189.45 32.80 189.50 33Q189.85 34.55 190.83 35.27Q191.80 36 193.45 35.70Q193.50 35.70 193.95 35.60Q194.40 35.50 194.45 35.55M200.90 39.40Q201.10 39.60 201.10 39.70Q201.10 39.80 200.88 39.75Q200.65 39.70 200.55 39.65Q200.15 39.45 199.55 39.08Q198.95 38.70 198.65 37.75Q198.50 37.35 198.45 36.77Q198.40 36.20 198.40 35.70Q198.40 35.20 198.50 34.88Q198.60 34.55 198.75 34.60Q198.85 34.65 198.98 35.05Q199.10 35.45 199.20 35.90Q199.30 36.45 199.45 36.92Q199.60 37.40 199.80 37.90Q200.05 38.45 200.30 38.77Q200.55 39.10 200.90 39.40M196.30 36.65Q195.75 37.50 194.63 38.38Q193.50 39.25 191.60 39.25Q190.10 39.25 189.03 38.45Q187.95 37.65 187.28 36.45Q186.60 35.25 186.33 33.83Q186.05 32.40 186.05 31.10Q186.10 29.50 186.33 27.90Q186.55 26.30 186.93 24.90Q187.30 23.50 187.78 22.40Q188.25 21.30 188.75 20.60Q188.85 20.55 188.98 20.38Q189.10 20.20 189.20 20.30Q189.25 20.35 189.18 20.52Q189.10 20.70 189.05 20.80Q188.60 22.30 188.18 23.98Q187.75 25.65 187.50 27.35Q187.25 29.05 187.25 30.70Q187.25 32.35 187.55 33.75Q187.75 34.70 188.28 35.50Q188.80 36.30 189.43 36.85Q190.05 37.40 190.78 37.65Q191.50 37.90 192.20 37.80Q193.65 37.60 194.40 36.98Q195.15 36.35 195.48 35.48Q195.80 34.60 195.88 33.58Q195.95 32.55 196.10 31.50Q195.85 32.20 195.13 32.88Q194.40 33.55 193.58 33.92Q192.75 34.30 191.98 34.25Q191.20 34.20 190.80 33.35Q190.30 32.25 190.25 30.95Q190.20 29.65 190.30 28.10Q190.40 26.55 190.75 24.90Q191.10 23.25 191.70 21.72Q192.30 20.20 193.13 18.85Q193.95 17.50 195 16.45L195.20 16.25Q195.35 16.10 195.50 16.10Q195.50 16.10 195.30 16.60Q193.85 19.30 192.85 22.18Q191.85 25.05 191.65 28Q191.40 31.25 191.98 32.25Q192.55 33.25 193.40 32.83Q194.25 32.40 195.23 30.98Q196.20 29.55 196.80 27.90Q197.35 26.40 197.98 24.80Q198.60 23.20 199.13 21.57Q199.65 19.95 199.93 18.40Q200.20 16.85 200.05 15.50Q200.05 15.25 200.15 15.25Q200.20 15.25 200.20 15.30Q200.20 15.40 200.25 15.40Q200.30 15.45 200.30 15.50Q201.10 17.20 201.03 18.95Q200.95 20.70 200.43 22.50Q199.90 24.30 199.18 26.17Q198.45 28.05 197.95 29.95Q197.65 31.15 197.50 32.48Q197.35 33.80 197.45 35.10Q197.55 36.40 198 37.58Q198.45 38.75 199.30 39.55Q199.40 39.65 199.40 39.70Q199.40 39.80 199.28 39.77Q199.15 39.75 199.05 39.70Q198.10 39.35 197.40 38.55Q196.70 37.75 196.30 36.65ZM212.85 22.60Q212.45 24.30 211.73 26.17Q211.00 28.05 210.10 29.65Q210.10 29.75 209.98 29.98Q209.85 30.20 209.65 30.20Q209.55 30.20 209.53 29.90Q209.50 29.60 209.55 29.50Q209.55 28.70 209.75 27.38Q209.95 26.05 210.25 25.20Q210.35 24.90 210.58 23.75Q210.80 22.60 210.98 21.18Q211.15 19.75 211.18 18.42Q211.20 17.10 210.85 16.45L210.85 16.25Q211.05 16.10 211.30 16.35Q211.95 16.90 212.33 17.70Q212.70 18.50 212.88 19.38Q213.05 20.25 213.03 21.10Q213.00 21.95 212.85 22.60M214.80 22.40Q215.35 21.70 215.85 21.40Q216.35 21.10 216.85 20.90Q216.90 20.90 217.10 20.85Q217.30 20.80 217.40 20.95Q217.50 21.10 217.35 21.30Q217.20 21.50 217.10 21.60Q216.75 21.95 216.33 22.38Q215.90 22.80 215.55 23.20Q215.05 23.75 214.75 24.48Q214.45 25.20 214.30 25.95Q215.15 25.05 215.93 24.25Q216.70 23.45 217.60 22.75Q218.75 21.90 219.60 20.55Q220.45 19.20 220.80 16.60Q220.90 16.35 221.05 16.30Q221.20 16.25 221.20 16.65Q221.35 19.55 220.60 21.25Q219.85 22.95 218.35 24.10Q217.55 24.70 216.75 25.40Q215.95 26.10 215.23 26.95Q214.50 27.80 213.90 28.95Q213.30 30.10 212.85 31.60Q212.50 32.75 212.15 33.77Q211.80 34.80 211.40 35.75Q211.30 36.10 211.10 36.10Q210.95 36.05 210.95 35.60Q210.70 33.20 211.28 30.82Q211.85 28.45 212.65 25.90Q213.00 24.65 213.48 23.40Q213.95 22.15 213.90 20.55Q213.90 20 214.35 19.40Q214.80 18.80 215.45 18.27Q216.10 17.75 216.80 17.38Q217.50 17 218.00 16.85Q218.45 16.70 218.45 16.90Q218.45 17.10 218.15 17.40Q217.10 18.35 216.03 19.65Q214.95 20.95 214.80 22.40M210.45 39.20Q210.40 39.25 210.38 39.23Q210.35 39.20 210.10 39.05Q208.60 37.95 207.75 36.65Q206.90 35.35 206.53 33.98Q206.15 32.60 206.20 31.23Q206.25 29.85 206.55 28.55Q206.95 26.80 207.53 25.07Q208.10 23.35 208.60 21.72Q209.10 20.10 209.35 18.52Q209.60 16.95 209.35 15.50Q209.35 15.40 209.50 15.35Q209.55 15.35 209.60 15.42Q209.65 15.50 209.70 15.55Q210.65 17.15 210.65 18.82Q210.65 20.50 210.20 22.22Q209.75 23.95 209.08 25.73Q208.40 27.50 208.00 29.30Q207.50 31.60 207.93 34.20Q208.35 36.80 210.25 38.85Q210.35 39 210.45 39.05Q210.55 39.10 210.45 39.20M211.95 39.25Q211.85 39.25 211.75 39.20L211.55 39.10Q210.85 38.65 210.30 38.13Q209.75 37.60 209.35 36.60Q209.20 36.25 209.10 35.67Q209.00 35.10 208.98 34.60Q208.95 34.10 209.03 33.75Q209.10 33.40 209.30 33.45Q209.45 33.45 209.63 33.85Q209.80 34.25 209.90 34.65Q210.00 35.20 210.13 35.70Q210.25 36.20 210.45 36.60Q211.00 37.85 211.90 39Q212.00 39.25 211.95 39.25M220.10 16.80Q220.10 17.85 219.50 18.65Q218.90 19.45 218.05 20Q217.90 20.10 217.85 19.97Q217.80 19.85 217.80 19.80Q217.80 19.50 218.05 19.07Q218.30 18.65 218.63 18.17Q218.95 17.70 219.25 17.20Q219.55 16.70 219.65 16.30Q219.80 16.05 219.95 16.30Q220.10 16.55 220.10 16.80ZM237.70 21.30Q237.80 22.85 237.50 24.27Q237.20 25.70 236.75 26.90Q236.65 27.15 236.43 27.45Q236.20 27.75 236.00 27.65Q235.90 27.65 235.95 27.30Q236.00 26.95 236.00 26.80Q236.05 26.25 236.08 25.42Q236.10 24.60 236.10 23.75Q236.10 22.90 236.03 22.13Q235.95 21.35 235.80 20.80Q235.35 19.20 234.38 19.02Q233.40 18.85 232.40 19.55Q231.40 20.25 230.50 21.50Q229.60 22.75 229.30 23.95Q229.60 23.50 230.08 22.88Q230.55 22.25 231.15 21.68Q231.75 21.10 232.43 20.72Q233.10 20.35 233.70 20.40Q234.35 20.45 234.63 21.10Q234.90 21.75 234.95 22.70Q235.00 23.65 234.85 24.75Q234.70 25.85 234.50 26.80Q234.15 28.35 233.90 30Q233.65 31.65 233.73 33.23Q233.80 34.80 234.28 36.27Q234.75 37.75 235.90 39Q236.00 39.15 236.05 39.25Q236.10 39.35 235.80 39.20Q234.50 38.45 233.73 37.45Q232.95 36.45 232.55 35.30Q232.15 34.15 232.08 32.90Q232.00 31.65 232.10 30.40Q232.30 28.60 232.70 27.25Q233.10 25.90 233.30 24.20Q233.40 23.15 233.15 22.82Q232.90 22.50 232.55 22.45Q232.05 22.40 231.43 22.97Q230.80 23.55 230.13 24.60Q229.45 25.65 228.83 27.05Q228.20 28.45 227.75 30Q227.35 31.55 226.78 33.23Q226.20 34.90 225.70 36.10Q225.50 36.55 225.40 36.55Q225.30 36.55 225.23 36.35Q225.15 36.15 225.15 36.05Q224.95 33.55 225.60 31.10Q226.25 28.65 227.10 26.15Q227.60 24.60 228.00 23.40Q228.40 22.20 228.40 20.35Q228.40 19.55 228.80 18.67Q229.20 17.80 229.98 17.07Q230.75 16.35 231.90 15.90Q233.05 15.45 234.50 15.50Q236.90 15.55 238.20 16.63Q239.50 17.70 240.03 19.35Q240.55 21 240.48 22.93Q240.40 24.85 240.05 26.65Q239.75 28 239.35 29.10Q238.95 30.20 238.50 31.15Q238.05 32.10 237.65 32.95Q237.25 33.80 237.00 34.65Q236.95 34.80 236.90 34.98Q236.85 35.15 236.75 35.15Q236.65 35.15 236.60 34.95Q236.55 34.75 236.55 34.50Q236.45 32.80 236.90 31.23Q237.35 29.65 237.85 27.98Q238.35 26.30 238.60 24.45Q238.85 22.60 238.40 20.35Q237.95 17.95 236.20 17.15Q234.45 16.35 232.20 17.25Q231.90 17.40 231.40 17.70Q230.90 18 230.43 18.50Q229.95 19 229.55 19.67Q229.15 20.35 229.05 21.15Q229.65 20.25 230.45 19.45Q231.25 18.65 232.15 18.17Q233.05 17.70 233.98 17.60Q234.90 17.50 235.80 17.95Q236.85 18.50 237.25 19.47Q237.65 20.45 237.70 21.30M227.50 22.65Q226.95 24.55 226.03 26.40Q225.10 28.25 224.50 29.95Q224.45 30.05 224.33 30.32Q224.20 30.60 224.00 30.55Q223.90 30.50 223.88 30.23Q223.85 29.95 223.85 29.80Q223.85 29 224.13 27.67Q224.40 26.35 224.70 25.50Q224.80 25.20 225.08 23.98Q225.35 22.75 225.58 21.30Q225.80 19.85 225.88 18.50Q225.95 17.15 225.60 16.55Q225.40 16.20 225.60 16.20Q225.75 16.20 226.00 16.45Q226.60 17 226.98 17.80Q227.35 18.60 227.53 19.47Q227.70 20.35 227.68 21.20Q227.65 22.05 227.50 22.65M237.70 39.20Q237.60 39.25 237.30 39.15Q237.15 39.10 237.05 39.05Q236.35 38.60 235.85 38.02Q235.35 37.45 234.85 36.05Q234.70 35.55 234.63 34.77Q234.55 34 234.60 33.25Q234.65 32.50 234.78 31.98Q234.90 31.45 235.15 31.45Q235.25 31.45 235.38 32.02Q235.50 32.60 235.63 33.35Q235.75 34.10 235.90 34.85Q236.05 35.60 236.15 35.95Q236.40 36.70 236.65 37.45Q236.90 38.20 237.45 38.75Q237.55 38.85 237.65 39.02Q237.75 39.20 237.70 39.20M224.20 39.30Q222.65 38.25 221.83 37Q221.00 35.75 220.70 34.40Q220.40 33.05 220.48 31.65Q220.55 30.25 220.85 28.90Q221.25 27.10 221.88 25.32Q222.50 23.55 223.08 21.88Q223.65 20.20 223.98 18.60Q224.30 17 224.05 15.55Q224.05 15.35 224.10 15.35Q224.20 15.35 224.35 15.60Q225.25 17.20 225.20 18.90Q225.15 20.60 224.65 22.38Q224.15 24.15 223.43 25.98Q222.70 27.80 222.30 29.65Q222.05 30.80 221.98 32.08Q221.90 33.35 222.15 34.60Q222.40 35.85 222.98 37.05Q223.55 38.25 224.55 39.20Q224.75 39.30 224.65 39.40Q224.55 39.50 224.43 39.42Q224.30 39.35 224.20 39.30M226.10 39.50Q225.95 39.60 225.70 39.35Q225.15 38.95 224.63 38.50Q224.10 38.05 223.60 37.05Q223.40 36.70 223.30 36.15Q223.20 35.60 223.20 35.08Q223.20 34.55 223.28 34.20Q223.35 33.85 223.50 33.85Q223.70 33.90 223.83 34.40Q223.95 34.90 224.05 35.05Q224.25 35.60 224.40 36.08Q224.55 36.55 224.75 37Q225.05 37.70 225.35 38.20Q225.65 38.70 226.05 39.20Q226.10 39.25 226.15 39.35Q226.20 39.45 226.10 39.50ZM260.85 21.65Q260.45 23.65 259.50 25.65Q258.55 27.65 257.70 29.40Q257.65 29.50 257.48 29.75Q257.30 30 257.20 30Q257.05 29.95 257.05 29.67Q257.05 29.40 257.05 29.30Q257.10 28.85 257.23 28.23Q257.35 27.60 257.45 26.92Q257.55 26.25 257.68 25.63Q257.80 25 257.95 24.50Q258.40 22.80 258.70 21.57Q259 20.35 259.15 19.35Q259.30 18.35 259.33 17.45Q259.35 16.55 259.20 15.50Q259.15 15.10 259.25 15Q259.35 14.95 259.50 15.10Q259.65 15.25 259.75 15.40Q260.60 16.75 260.90 18.38Q261.20 20 260.85 21.65M262.05 18.30Q262.70 19.25 262.70 20.80Q262.70 22.35 262.40 23.98Q262.10 25.60 261.65 27.10Q261.20 28.60 261 29.50Q260.60 31.25 259.90 33Q259.20 34.75 258.70 36.10Q258.65 36.25 258.55 36.42Q258.45 36.60 258.35 36.60Q258.25 36.60 258.25 36.40Q258.25 36.20 258.25 36.05Q258.10 33.30 258.85 30.67Q259.60 28.05 260.45 25.35Q260.95 23.70 261.40 21.97Q261.85 20.25 261.80 18.20Q261.80 18 261.85 18L262.05 18.30M257.35 17.45Q254.30 18.70 252.18 21.02Q250.05 23.35 248.90 26.25Q248.40 27.55 248.15 28.57Q247.90 29.60 247.75 30.80Q247.70 31.05 247.90 31.30Q248.10 31.55 248.30 31.30Q249.20 30.20 250.60 28.50Q252.00 26.80 253.40 24.90Q254.80 23 255.93 21.05Q257.05 19.10 257.35 17.45M254.00 34.40Q253.25 35.45 252.55 36.35Q251.85 37.25 251.00 37.92Q250.15 38.60 249.10 39Q248.05 39.40 246.70 39.45Q244.45 39.55 243.28 38.30Q242.10 37.05 241.65 35.25Q241.20 33.45 241.33 31.52Q241.45 29.60 241.85 28.35Q242.40 26.60 243.18 25.02Q243.95 23.45 244.83 22.18Q245.70 20.90 246.63 19.97Q247.55 19.05 248.45 18.55Q248.50 18.55 248.68 18.45Q248.85 18.35 248.85 18.50Q248.90 18.50 248.80 18.65Q248.70 18.80 248.60 18.90Q246.00 21.60 244.48 25Q242.95 28.40 242.75 32Q242.70 32.90 242.83 33.95Q242.95 35 243.33 35.92Q243.70 36.85 244.40 37.48Q245.10 38.10 246.30 38.10Q247.25 38.10 248.05 37.77Q248.85 37.45 249.55 36.92Q250.25 36.40 250.83 35.77Q251.40 35.15 251.85 34.60Q252.85 33.35 253.70 32Q253.70 31 253.83 30.05Q253.95 29.10 254.20 28.15Q254.35 27.45 254.48 27.02Q254.60 26.60 254.73 26.23Q254.85 25.85 254.98 25.42Q255.10 25 255.35 24.30Q254.55 25.70 253.78 26.92Q253.00 28.15 252.13 29.27Q251.25 30.40 250.33 31.48Q249.40 32.55 248.30 33.65Q247.45 34.50 246.90 34.20Q246.35 33.90 246.25 32.80Q246.15 31.10 246.43 29.50Q246.70 27.90 247.40 26.15Q248.05 24.55 249.03 23.05Q250.00 21.55 251.28 20.32Q252.55 19.10 254.10 18.22Q255.65 17.35 257.40 17.05Q257.50 16.50 257.58 16.10Q257.65 15.70 257.70 15.30Q257.80 14.75 257.80 14.75Q257.90 14.70 258.03 14.85Q258.15 15 258.25 15.25Q258.85 16.90 258.65 18.55Q258.45 20.20 257.93 21.90Q257.40 23.60 256.70 25.38Q256 27.15 255.55 28.95Q254.95 31.50 255.23 34.23Q255.50 36.95 257.35 39.15Q257.50 39.35 257.50 39.35Q257.45 39.40 257.20 39.25Q255.75 38.35 255.03 37.08Q254.30 35.80 254.00 34.40M255.75 16.70Q255.85 16.80 255.73 16.85Q255.60 16.90 255.20 17Q254.55 17.20 253.63 17.75Q252.70 18.30 251.68 19.15Q250.65 20 249.65 21.13Q248.65 22.25 247.90 23.55Q247.15 24.90 246.63 26.20Q246.10 27.50 245.78 28.57Q245.45 29.65 245.30 30.42Q245.15 31.20 245.15 31.50Q245.15 32.25 245.15 33.08Q245.15 33.90 245.35 34.55Q245.55 35.20 246.05 35.55Q246.55 35.90 247.55 35.75Q247.60 35.75 247.80 35.67Q248.00 35.60 248.20 35.52Q248.40 35.45 248.58 35.40Q248.75 35.35 248.80 35.35Q248.85 35.45 248.73 35.60Q248.60 35.75 248.40 35.92Q248.20 36.10 248.03 36.25Q247.85 36.40 247.80 36.45Q246.55 37.20 245.70 36.90Q244.85 36.60 244.38 35.77Q243.90 34.95 243.73 33.83Q243.55 32.70 243.60 31.80Q243.70 30.05 244.15 28.32Q244.60 26.60 245.30 24.85Q245.85 23.50 246.95 22.07Q248.05 20.65 249.43 19.45Q250.80 18.25 252.30 17.47Q253.80 16.70 255.20 16.65Q255.70 16.65 255.75 16.70M258.70 39.15Q258.80 39.30 258.75 39.35Q258.60 39.35 258.35 39.25Q258.20 39.15 257.55 38.65Q256.90 38.15 256.60 37.05Q256.50 36.65 256.43 36.02Q256.35 35.40 256.35 34.85Q256.35 34.30 256.43 33.90Q256.50 33.50 256.65 33.50Q256.80 33.50 256.98 34.10Q257.15 34.70 257.20 34.85Q257.35 35.55 257.48 36.08Q257.60 36.60 257.75 37.05Q257.95 37.60 258.28 38.30Q258.60 39 258.70 39.15ZM272.65 13.20Q272.95 12.10 273.05 10.52Q273.15 8.95 273.05 7.38Q272.95 5.80 272.58 4.40Q272.20 3 271.45 2.25Q271.15 1.95 270.98 2.05Q270.80 2.15 271.05 2.55Q271.55 3.45 271.53 5.32Q271.50 7.20 271.20 9.40Q270.90 11.60 270.40 13.80Q269.90 16 269.40 17.65Q269.15 18.35 268.90 19.40Q268.65 20.45 268.38 21.52Q268.10 22.60 267.90 23.63Q267.70 24.65 267.60 25.35Q267.60 25.50 267.55 25.92Q267.50 26.35 267.65 26.45Q267.75 26.45 267.95 26.02Q268.15 25.60 268.20 25.50Q269.40 22.70 270.65 19.52Q271.90 16.35 272.65 13.20M271.50 25.40Q271.75 24.50 272.20 23.05Q272.65 21.60 273.10 19.88Q273.55 18.15 273.98 16.27Q274.40 14.40 274.63 12.63Q274.85 10.85 274.78 9.35Q274.70 7.85 274.25 6.90Q274.20 6.75 274.05 6.60Q273.90 6.45 273.90 6.85Q274 10.05 273.25 13.25Q272.50 16.45 271.65 19.05Q271 21.10 270.33 23.15Q269.65 25.20 269.18 27.23Q268.70 29.25 268.58 31.20Q268.45 33.15 268.95 34.95Q269.15 35.60 269.30 35.60Q269.45 35.55 269.45 34.95Q269.45 34.05 269.63 32.92Q269.80 31.80 270.10 30.55Q270.40 29.30 270.75 27.98Q271.10 26.65 271.50 25.40M270.55 39.10Q268.80 38.90 267.43 37.35Q266.05 35.80 265.60 33.55Q265.15 31.40 265.38 29.17Q265.60 26.95 266.15 25Q266.95 22 268.05 18.82Q269.15 15.65 269.93 12.55Q270.70 9.45 270.80 6.57Q270.90 3.70 269.80 1.30Q269.70 1.25 269.65 1.07Q269.60 0.90 269.50 0.95Q269.35 0.95 269.45 1.30Q269.85 3.60 269.50 6.27Q269.15 8.95 268.38 11.82Q267.60 14.70 266.63 17.75Q265.65 20.80 264.80 23.85Q264.15 26.10 263.93 28.63Q263.70 31.15 264.25 33.70Q264.55 35 265.18 36.05Q265.80 37.10 266.65 37.83Q267.50 38.55 268.50 38.95Q269.50 39.35 270.55 39.30L270.70 39.30Q270.75 39.30 270.85 39.25Q270.85 39.10 270.55 39.10M269.05 36.60Q268.15 35.55 267.60 33.90Q267.55 33.75 267.45 33.42Q267.35 33.10 267.25 32.77Q267.15 32.45 267.05 32.17Q266.95 31.90 266.90 31.90Q266.70 31.90 266.70 32.55Q266.70 33.20 266.85 34.05Q267 34.90 267.30 35.77Q267.60 36.65 268 37.15Q268.80 38.05 269.63 38.25Q270.45 38.45 271.30 38.45Q271.60 38.45 271.78 38.27Q271.95 38.10 271.50 38Q270.05 37.85 269.05 36.60Z"/></g></g></svg>